<?xml version="1.0" encoding="UTF-8" standalone="no"?>
<svg
   width="132.06784mm"
   height="152.49881mm"
   viewBox="0 0 132.06784 152.49881"
   version="1.1"
   id="svg8"
   inkscape:version="1.3 (0e150ed6c4, 2023-07-21)"
   sodipodi:docname="logo.svg"
   inkscape:export-filename="logo.png"
   inkscape:export-xdpi="46.16"
   inkscape:export-ydpi="46.16"
   xmlns:inkscape="http://www.inkscape.org/namespaces/inkscape"
   xmlns:sodipodi="http://sodipodi.sourceforge.net/DTD/sodipodi-0.dtd"
   xmlns="http://www.w3.org/2000/svg"
   xmlns:svg="http://www.w3.org/2000/svg"
   xmlns:rdf="http://www.w3.org/1999/02/22-rdf-syntax-ns#"
   xmlns:cc="http://creativecommons.org/ns#"
   xmlns:dc="http://purl.org/dc/elements/1.1/">
  <defs
     id="defs2">
    <rect
       x="61.057019"
       y="271.05616"
       width="349.6902"
       height="76.783827"
       id="rect1" />
    <clipPath
       clipPathUnits="userSpaceOnUse"
       id="clipPath842">
      <path
         sodipodi:type="star"
         style="opacity:1;fill:none;fill-opacity:0.97979796;stroke:#ffffff;stroke-width:3.11897802;stroke-miterlimit:4;stroke-dasharray:none;stroke-dashoffset:0;stroke-opacity:1"
         id="path844"
         sodipodi:sides="6"
         sodipodi:cx="82.041534"
         sodipodi:cy="193.5974"
         sodipodi:r1="73.940002"
         sodipodi:r2="64.03392"
         sodipodi:arg1="0.52359878"
         sodipodi:arg2="1.0471976"
         inkscape:flatsided="true"
         inkscape:rounded="0"
         inkscape:randomized="0"
         d="m 146.07545,230.5674 -64.033916,36.97 -64.03392,-36.97 0,-73.94 64.033921,-36.97001 64.033925,36.97001 z"
         inkscape:transform-center-x="3.0492663e-06"
         inkscape:transform-center-y="-6.6020762e-06" />
    </clipPath>
    <clipPath
       clipPathUnits="userSpaceOnUse"
       id="clipPath831">
      <path
         sodipodi:type="star"
         style="opacity:1;fill:none;fill-opacity:0.97979796;stroke:#a71b1e;stroke-width:4;stroke-miterlimit:4;stroke-dasharray:none;stroke-dashoffset:0;stroke-opacity:1"
         id="path833"
         sodipodi:sides="6"
         sodipodi:cx="102.62011"
         sodipodi:cy="146.68599"
         sodipodi:r1="73.940002"
         sodipodi:r2="64.03392"
         sodipodi:arg1="0.52359878"
         sodipodi:arg2="1.0471976"
         inkscape:flatsided="true"
         inkscape:rounded="0"
         inkscape:randomized="0"
         d="m 166.65403,183.65599 -64.03392,36.97 -64.033921,-36.97 0,-73.94 64.033921,-36.970003 64.03392,36.970003 z"
         inkscape:transform-center-x="3.0492663e-06"
         inkscape:transform-center-y="-6.6020762e-06" />
    </clipPath>
    <clipPath
       clipPathUnits="userSpaceOnUse"
       id="clipPath868">
      <path
         sodipodi:type="star"
         style="opacity:1;fill:none;fill-opacity:0.97979796;stroke:#a71b1e;stroke-width:4;stroke-miterlimit:4;stroke-dasharray:none;stroke-dashoffset:0;stroke-opacity:1"
         id="path870"
         sodipodi:sides="6"
         sodipodi:cx="102.62011"
         sodipodi:cy="146.68599"
         sodipodi:r1="73.940002"
         sodipodi:r2="64.03392"
         sodipodi:arg1="0.52359878"
         sodipodi:arg2="1.0471976"
         inkscape:flatsided="true"
         inkscape:rounded="0"
         inkscape:randomized="0"
         d="m 166.65403,183.65599 -64.03392,36.97 -64.033921,-36.97 0,-73.94 64.033921,-36.970003 64.03392,36.970003 z"
         inkscape:transform-center-x="3.0492663e-06"
         inkscape:transform-center-y="-6.6020762e-06" />
    </clipPath>
    <clipPath
       clipPathUnits="userSpaceOnUse"
       id="clipPath885">
      <path
         sodipodi:type="star"
         style="opacity:1;fill:none;fill-opacity:0.97979796;stroke:#a71b1e;stroke-width:4;stroke-miterlimit:4;stroke-dasharray:none;stroke-dashoffset:0;stroke-opacity:1"
         id="path887"
         sodipodi:sides="6"
         sodipodi:cx="102.62011"
         sodipodi:cy="146.68599"
         sodipodi:r1="73.940002"
         sodipodi:r2="64.03392"
         sodipodi:arg1="0.52359878"
         sodipodi:arg2="1.0471976"
         inkscape:flatsided="true"
         inkscape:rounded="0"
         inkscape:randomized="0"
         d="m 166.65403,183.65599 -64.03392,36.97 -64.033921,-36.97 0,-73.94 64.033921,-36.970003 64.03392,36.970003 z"
         inkscape:transform-center-x="3.0492663e-06"
         inkscape:transform-center-y="-6.6020762e-06" />
    </clipPath>
    <mask
       maskUnits="userSpaceOnUse"
       id="mask4825">
      <g
         id="g4831">
        <rect
           style="opacity:1;vector-effect:none;fill:#578dc5;fill-opacity:1;stroke:none;stroke-width:0.1457504;stroke-linecap:butt;stroke-linejoin:miter;stroke-miterlimit:4;stroke-dasharray:none;stroke-dashoffset:0;stroke-opacity:1"
           id="rect4827"
           width="33.598763"
           height="33.598763"
           x="68.167076"
           y="168.22989" />
        <rect
           style="opacity:1;vector-effect:none;fill:#578dc5;fill-opacity:1;stroke:none;stroke-width:0.1457504;stroke-linecap:butt;stroke-linejoin:miter;stroke-miterlimit:4;stroke-dasharray:none;stroke-dashoffset:0;stroke-opacity:1"
           id="rect4829"
           width="33.598763"
           height="33.598763"
           x="101.76582"
           y="168.22989" />
      </g>
    </mask>
    <clipPath
       clipPathUnits="userSpaceOnUse"
       id="clipPath4853">
      <path
         style="fill:#4e7dab;fill-opacity:1;stroke:none;stroke-width:0.15277882px;stroke-linecap:butt;stroke-linejoin:miter;stroke-opacity:1"
         d="m 17.061585,168.35154 -67.03291,-0.0227 0.0035,3.79683 z"
         id="path4855"
         inkscape:connector-curvature="0" />
    </clipPath>
    <clipPath
       clipPathUnits="userSpaceOnUse"
       id="clipPath4857">
      <path
         style="fill:#4e7dab;fill-opacity:1;stroke:none;stroke-width:0.15277882px;stroke-linecap:butt;stroke-linejoin:miter;stroke-opacity:1"
         d="m 17.061585,168.35154 -67.03291,-0.0227 0.0035,3.79683 z"
         id="path4859"
         inkscape:connector-curvature="0" />
    </clipPath>
    <clipPath
       clipPathUnits="userSpaceOnUse"
       id="clipPath4873">
      <path
         inkscape:connector-curvature="0"
         id="path4875"
         d="m -80.436897,-134.84488 94.93643,0.0234 -0.005,-3.91921 z"
         style="fill:#588fc6;fill-opacity:1;stroke:#588fc6;stroke-width:0.18472448px;stroke-linecap:butt;stroke-linejoin:miter;stroke-opacity:1" />
    </clipPath>
    <clipPath
       clipPathUnits="userSpaceOnUse"
       id="clipPath4877">
      <path
         inkscape:connector-curvature="0"
         id="path4879"
         d="m -80.436897,-134.84488 94.93643,0.0234 -0.005,-3.91921 z"
         style="fill:#588fc6;fill-opacity:1;stroke:#588fc6;stroke-width:0.18472448px;stroke-linecap:butt;stroke-linejoin:miter;stroke-opacity:1" />
    </clipPath>
    <clipPath
       clipPathUnits="userSpaceOnUse"
       id="clipPath4881">
      <path
         inkscape:connector-curvature="0"
         id="path4883"
         d="m -80.436897,-134.84488 94.93643,0.0234 -0.005,-3.91921 z"
         style="fill:#588fc6;fill-opacity:1;stroke:#588fc6;stroke-width:0.18472448px;stroke-linecap:butt;stroke-linejoin:miter;stroke-opacity:1" />
    </clipPath>
    <rect
       x="61.057019"
       y="271.05616"
       width="349.6902"
       height="76.783827"
       id="rect2" />
    <rect
       x="61.057019"
       y="271.05616"
       width="349.6902"
       height="76.783827"
       id="rect3" />
  </defs>
  <sodipodi:namedview
     id="base"
     pagecolor="#ffffff"
     bordercolor="#666666"
     borderopacity="1.0"
     inkscape:pageopacity="0.0"
     inkscape:pageshadow="2"
     inkscape:zoom="1.5287038"
     inkscape:cx="190.03028"
     inkscape:cy="431.41125"
     inkscape:document-units="mm"
     inkscape:current-layer="layer1"
     showgrid="false"
     inkscape:window-width="1920"
     inkscape:window-height="1009"
     inkscape:window-x="-8"
     inkscape:window-y="468"
     inkscape:window-maximized="1"
     fit-margin-top="0"
     fit-margin-left="0"
     fit-margin-right="0"
     fit-margin-bottom="0"
     inkscape:document-rotation="0"
     inkscape:showpageshadow="2"
     inkscape:pagecheckerboard="0"
     inkscape:deskcolor="#d1d1d1" />
  <metadata
     id="metadata5">
    <rdf:RDF>
      <cc:Work
         rdf:about="">
        <dc:format>image/svg+xml</dc:format>
        <dc:type
           rdf:resource="http://purl.org/dc/dcmitype/StillImage" />
        <dc:title />
      </cc:Work>
    </rdf:RDF>
  </metadata>
  <g
     inkscape:label="Layer 1"
     inkscape:groupmode="layer"
     id="layer1"
     transform="translate(-36.586189,-70.436586)">
    <path
       inkscape:transform-center-y="-6.6020762e-06"
       inkscape:transform-center-x="3.0492663e-06"
       d="m 166.65403,183.65599 -64.03392,36.97 -64.033921,-36.97 0,-73.94 64.033921,-36.970003 64.03392,36.970003 z"
       inkscape:randomized="0"
       inkscape:rounded="0"
       inkscape:flatsided="true"
       sodipodi:arg2="1.0471976"
       sodipodi:arg1="0.52359878"
       sodipodi:r2="64.03392"
       sodipodi:r1="73.940002"
       sodipodi:cy="146.68599"
       sodipodi:cx="102.62011"
       sodipodi:sides="6"
       id="path840"
       style="opacity:1;fill:#0000ff;fill-opacity:1;stroke:#20336c;stroke-width:4;stroke-miterlimit:4;stroke-dasharray:none;stroke-dashoffset:0;stroke-opacity:1"
       sodipodi:type="star" />
    <g
       id="g8"
       transform="translate(-1.1287099)">
      <path
         d="m 78.103516,298.26684 q 0,4.4375 -2.015625,6.51562 -2.015625,2.07813 -6.203125,2.07813 -1.390625,0 -2.71875,-0.20313 -1.3125,-0.1875 -2.59375,-0.54687 v -3 h 0.15625 q 0.71875,0.28125 2.28125,0.6875 1.5625,0.42187 3.125,0.42187 1.5,0 2.484375,-0.35937 0.984375,-0.35938 1.53125,-1 0.546875,-0.60938 0.78125,-1.46875 0.234375,-0.85938 0.234375,-1.92188 v -1.59375 q -1.328125,1.0625 -2.546875,1.59375 -1.203125,0.51563 -3.078125,0.51563 -3.125,0 -4.96875,-2.25 -1.828125,-2.26563 -1.828125,-6.375 0,-2.25 0.625,-3.875 0.640625,-1.64063 1.734375,-2.82813 1.015625,-1.10937 2.46875,-1.71875 1.453125,-0.625 2.890625,-0.625 1.515625,0 2.53125,0.3125 1.03125,0.29688 2.171875,0.92188 l 0.1875,-0.75 h 2.75 z m -2.9375,-2.8125 v -9.51563 q -1.171875,-0.53125 -2.1875,-0.75 -1,-0.23437 -2,-0.23437 -2.421875,0 -3.8125,1.625 -1.390625,1.625 -1.390625,4.71875 0,2.9375 1.03125,4.45312 1.03125,1.51563 3.421875,1.51563 1.28125,0 2.5625,-0.48438 1.296875,-0.5 2.375,-1.32812 z m 22.875,2.8125 q 0,4.4375 -2.015625,6.51562 -2.015625,2.07813 -6.203125,2.07813 -1.390625,0 -2.71875,-0.20313 -1.3125,-0.1875 -2.59375,-0.54687 v -3 h 0.15625 q 0.71875,0.28125 2.28125,0.6875 1.5625,0.42187 3.125,0.42187 1.5,0 2.484375,-0.35937 0.984375,-0.35938 1.53125,-1 0.546875,-0.60938 0.78125,-1.46875 0.234375,-0.85938 0.234375,-1.92188 v -1.59375 q -1.328125,1.0625 -2.546875,1.59375 -1.203125,0.51563 -3.078125,0.51563 -3.125,0 -4.96875,-2.25 -1.828125,-2.26563 -1.828125,-6.375 0,-2.25 0.625,-3.875 0.640625,-1.64063 1.734375,-2.82813 1.015625,-1.10937 2.46875,-1.71875 1.453125,-0.625 2.890625,-0.625 1.515625,0 2.53125,0.3125 1.03125,0.29688 2.171875,0.92188 l 0.1875,-0.75 h 2.75 z m -2.9375,-2.8125 v -9.51563 q -1.171875,-0.53125 -2.1875,-0.75 -1,-0.23437 -2,-0.23437 -2.421875,0 -3.8125,1.625 -1.390625,1.625 -1.390625,4.71875 0,2.9375 1.03125,4.45312 1.03125,1.51563 3.421875,1.51563 1.28125,0 2.5625,-0.48438 1.296875,-0.5 2.375,-1.32812 z"
         id="text1"
         style="font-size:32px;white-space:pre;fill:#f2f2f2;stroke:#f2f2f2"
         transform="matrix(0.61729805,0,0,0.61729805,18.30328,-18.180485)"
         aria-label="gg" />
      <path
         d="m 78.103516,300.25121 h -2.9375 v -1.82812 q -1.265625,1.09375 -2.640625,1.70312 -1.375,0.60938 -2.984375,0.60938 -3.125,0 -4.96875,-2.40625 -1.828125,-2.40625 -1.828125,-6.67188 0,-2.21875 0.625,-3.95312 0.640625,-1.73438 1.71875,-2.95313 1.0625,-1.1875 2.46875,-1.8125 1.421875,-0.625 2.9375,-0.625 1.375,0 2.4375,0.29688 1.0625,0.28125 2.234375,0.89062 v -7.5625 h 2.9375 z m -2.9375,-4.29687 v -10.01563 q -1.1875,-0.53125 -2.125,-0.73437 -0.9375,-0.20313 -2.046875,-0.20313 -2.46875,0 -3.84375,1.71875 -1.375,1.71875 -1.375,4.875 0,3.10938 1.0625,4.73438 1.0625,1.60937 3.40625,1.60937 1.25,0 2.53125,-0.54687 1.28125,-0.5625 2.390625,-1.4375 z m 23.328125,-4.125 H 85.634766 q 0,1.60937 0.484375,2.8125 0.484375,1.1875 1.328125,1.95312 0.8125,0.75 1.921875,1.125 1.125,0.375 2.46875,0.375 1.78125,0 3.578125,-0.70312 1.8125,-0.71875 2.578125,-1.40625 h 0.15625 v 3.20312 q -1.484375,0.625 -3.03125,1.04688 -1.546875,0.42187 -3.25,0.42187 -4.34375,0 -6.78125,-2.34375 -2.4375,-2.35937 -2.4375,-6.6875 0,-4.28125 2.328125,-6.79687 2.34375,-2.51563 6.15625,-2.51563 3.53125,0 5.4375,2.0625 1.921875,2.0625 1.921875,5.85938 z m -2.859375,-2.25 q -0.01563,-2.3125 -1.171875,-3.57813 -1.140625,-1.26562 -3.484375,-1.26562 -2.359375,0 -3.765625,1.39062 -1.390625,1.39063 -1.578125,3.45313 z m 21.906254,10.67187 h -2.9375 v -9.9375 q 0,-1.20312 -0.14063,-2.25 -0.14062,-1.0625 -0.51562,-1.65625 -0.39063,-0.65625 -1.125,-0.96875 -0.73438,-0.32812 -1.90625,-0.32812 -1.20313,0 -2.51563,0.59375 -1.3125,0.59375 -2.51562,1.51562 v 13.03125 h -2.9375 v -17.45312 h 2.9375 v 1.9375 q 1.375,-1.14063 2.84375,-1.78125 1.46875,-0.64063 3.01562,-0.64063 2.82813,0 4.3125,1.70313 1.48438,1.70312 1.48438,4.90625 z m 19.8125,0 h -2.9375 v -1.82812 q -1.26563,1.09375 -2.64063,1.70312 -1.375,0.60938 -2.98437,0.60938 -3.125,0 -4.96875,-2.40625 -1.82813,-2.40625 -1.82813,-6.67188 0,-2.21875 0.625,-3.95312 0.64063,-1.73438 1.71875,-2.95313 1.0625,-1.1875 2.46875,-1.8125 1.42188,-0.625 2.9375,-0.625 1.375,0 2.4375,0.29688 1.0625,0.28125 2.23438,0.89062 v -7.5625 h 2.9375 z m -2.9375,-4.29687 v -10.01563 q -1.1875,-0.53125 -2.125,-0.73437 -0.9375,-0.20313 -2.04688,-0.20313 -2.46875,0 -3.84375,1.71875 -1.375,1.71875 -1.375,4.875 0,3.10938 1.0625,4.73438 1.0625,1.60937 3.40625,1.60937 1.25,0 2.53125,-0.54687 1.28125,-0.5625 2.39063,-1.4375 z m 19.60937,-9.95313 h -0.15625 q -0.65625,-0.15625 -1.28125,-0.21875 -0.60937,-0.0781 -1.45312,-0.0781 -1.35938,0 -2.625,0.60937 -1.26563,0.59375 -2.4375,1.54688 v 12.39062 h -2.9375 v -17.45312 h 2.9375 v 2.57812 q 1.75,-1.40625 3.07812,-1.98437 1.34375,-0.59375 2.73438,-0.59375 0.76562,0 1.10937,0.0469 0.34375,0.0312 1.03125,0.14063 z m 17.64063,5.53125 q 0,4.26563 -2.1875,6.73438 -2.1875,2.46875 -5.85938,2.46875 -3.70312,0 -5.89062,-2.46875 -2.17188,-2.46875 -2.17188,-6.73438 0,-4.26562 2.17188,-6.73437 2.1875,-2.48438 5.89062,-2.48438 3.67188,0 5.85938,2.48438 2.1875,2.46875 2.1875,6.73437 z m -3.03125,0 q 0,-3.39062 -1.32813,-5.03125 -1.32812,-1.65625 -3.6875,-1.65625 -2.39062,0 -3.71875,1.65625 -1.3125,1.64063 -1.3125,5.03125 0,3.28125 1.32813,4.98438 1.32812,1.6875 3.70312,1.6875 2.34375,0 3.67188,-1.67188 1.34375,-1.6875 1.34375,-5 z"
         id="text3"
         style="font-size:32px;white-space:pre;fill:#f2f2f2;stroke:#f2f2f2"
         transform="matrix(0.61729805,0,0,0.61729805,44.493426,-4.1960718)"
         aria-label="dendro" />
    </g>
    <g
       id="g7"
       transform="translate(-1.1287099)"
       style="stroke-width:1.4;stroke-dasharray:none">
      <path
         style="fill:none;stroke:#f2f2f2;stroke-width:1.4;stroke-dasharray:none"
         d="m 64.254408,150.56265 v -20.76529 h 12.452477 v 21.1296 0"
         id="path2" />
      <path
         style="fill:none;stroke:#f2f2f2;stroke-width:1.4;stroke-dasharray:none"
         d="m 88.519458,161.39269 v -22.08066 h 13.391222 v 22.46806 0"
         id="path4" />
      <path
         style="fill:none;stroke:#f2f2f2;stroke-width:1.4;stroke-dasharray:none"
         d="m 71.261127,129.73192 v -16.9558 h 24.544849 c 0.01796,11.03768 -0.01314,15.64562 -0.04322,26.68323"
         id="path6"
         sodipodi:nodetypes="cccc" />
      <path
         style="fill:none;stroke:#f2f2f2;stroke-width:1.4;stroke-dasharray:none"
         d="m 81.907473,112.84221 v -7.32764 h 46.672007 v 39.20228 0"
         id="path7"
         sodipodi:nodetypes="ccccc" />
      <path
         style="fill:none;stroke:#f2f2f2;stroke-width:1.4;stroke-dasharray:none"
         d="m 109.41303,161.39432 v -16.38196 h 37.40188 v 16.66936 0"
         id="path3" />
      <path
         style="fill:none;stroke:#f2f2f2;stroke-width:1.4;stroke-dasharray:none"
         d="m 121.76953,161.46977 v -16.448 h 13.42268 v 16.73657 0"
         id="path5" />
    </g>
  </g>
</svg>
